<svg id="Capa_1" data-name="Capa 1" xmlns="http://www.w3.org/2000/svg" viewBox="0 0 60 60"><defs><style>.cls-1{fill:#535353;}</style></defs><title>xy</title><path class="cls-1" d="M14.56,37.85l-5.78-8h4.08l3.77,5.38,3.77-5.38h4l-5.78,7.94,6,8.38H20.56l-4-5.72-4,5.72h-4Z"/><path class="cls-1" d="M26.61,49q2.84-.56,2.63-2.91H27.67V41.9h4.11v3.58a5.08,5.08,0,0,1-1.21,3.77A5.56,5.56,0,0,1,27,50.62Z"/><path class="cls-1" d="M39.57,51.17a7.55,7.55,0,0,1-2.09-.26,9.05,9.05,0,0,1-1.78-.73L37,47.4a6.35,6.35,0,0,0,1.07.45,3.78,3.78,0,0,0,1.13.17,2.13,2.13,0,0,0,1.33-.4,3.69,3.69,0,0,0,1-1.48l-6.8-16.32h4l4.64,12.12,4.24-12.12h3.89L44.95,46.6a13.86,13.86,0,0,1-1,2.13,5.57,5.57,0,0,1-1.17,1.41,4.21,4.21,0,0,1-1.42.79A5.77,5.77,0,0,1,39.57,51.17Z"/><circle class="cls-1" cx="30" cy="15" r="5"/></svg>