<svg id="Capa_1" data-name="Capa 1" xmlns="http://www.w3.org/2000/svg" viewBox="0 0 60 60"><defs><style>.cls-1{fill:#535353;}</style></defs><title>mostraricon action SIG VIAL</title><path class="cls-1" d="M29.5,20.36c-13.91,0-27.37,13.27-27.91,13.86a2,2,0,0,0,0,2.84c.59.59,14,13.86,27.91,13.86S56.87,37.65,57.41,37.06a2,2,0,0,0,0-2.84c-.54-.59-14-13.86-27.91-13.86Zm0,26.49c-9.74,0-19.78-7.93-23.55-11.26C9.72,32.26,19.76,24.33,29.5,24.33s19.78,7.93,23.55,11.26C49.28,38.92,39.24,46.86,29.5,46.86Zm0,0"/><path class="cls-1" d="M22.3,35.59a7.25,7.25,0,1,0,7.25-7.25,7.26,7.26,0,0,0-7.25,7.25Zm10.43,0a3.23,3.23,0,1,1-3.23-3.23,3.29,3.29,0,0,1,3.23,3.23Zm0,0"/></svg>